<svg xmlns="http://www.w3.org/2000/svg" viewBox="0 0 318.25 318.25"><defs><style>.cls-1{fill:#e43d30;}</style></defs><title>canvas-icon</title><g id="Layer_2" data-name="Layer 2"><g id="layer"><path class="cls-1" d="M46.17,158.77a45.92,45.92,0,0,0-40.4-45.6,183.15,183.15,0,0,0,0,91.2A45.84,45.84,0,0,0,46.17,158.77Z"/><path class="cls-1" d="M72.87,144.37a14.45,14.45,0,1,0,14.4,14.5v-.1A14.34,14.34,0,0,0,72.87,144.37Z"/><path class="cls-1" d="M272.07,158.77a45.92,45.92,0,0,0,40.4,45.6,182.92,182.92,0,0,0,0-91.2A46,46,0,0,0,272.07,158.77Z"/><path class="cls-1" d="M245.27,144.37A14.46,14.46,0,1,0,259.57,159v-.2A14.46,14.46,0,0,0,245.27,144.37Z"/><path class="cls-1" d="M158.77,272.08a45.92,45.92,0,0,0-45.6,40.4,183,183,0,0,0,91.21,0A45.93,45.93,0,0,0,158.77,272.08Z"/><path class="cls-1" d="M158.77,231a14.45,14.45,0,1,0,14.4,14.5v-.11A14.4,14.4,0,0,0,158.77,231Z"/><path class="cls-1" d="M158.77,46.17a45.93,45.93,0,0,0,45.61-40.4,183.19,183.19,0,0,0-91.21,0A45.92,45.92,0,0,0,158.77,46.17Z"/><path class="cls-1" d="M158.77,58.48a14.4,14.4,0,1,0,14.4,14.39h0A14.4,14.4,0,0,0,158.77,58.48Z"/><path class="cls-1" d="M238.77,238.77a45.87,45.87,0,0,0-3.7,60.71,182.89,182.89,0,0,0,64.5-64.5A46.32,46.32,0,0,0,238.77,238.77Z"/><path class="cls-1" d="M209.67,209.67a14.42,14.42,0,1,0,20.4,0h0A14.5,14.5,0,0,0,209.67,209.67Z"/><path class="cls-1" d="M79.07,79.07a46,46,0,0,0,3.8-60.7,182.81,182.81,0,0,0-64.5,64.5A46,46,0,0,0,79.07,79.07Z"/><path class="cls-1" d="M87.77,87.77a14.42,14.42,0,1,0,20.4,0h0A14.49,14.49,0,0,0,87.77,87.77Z"/><path class="cls-1" d="M238.67,78.87a46,46,0,0,0,60.71,3.8,183,183,0,0,0-64.5-64.5A46,46,0,0,0,238.67,78.87Z"/><path class="cls-1" d="M230,108.07a14.42,14.42,0,1,0-20.4,0h0A14.49,14.49,0,0,0,230,108.07Z"/><path class="cls-1" d="M79,238.67a46,46,0,0,0-60.7-3.8,182.53,182.53,0,0,0,64.4,64.5A45.94,45.94,0,0,0,79,238.67Z"/><path class="cls-1" d="M87.67,209.48a14.42,14.42,0,1,0,20.4,0h0A14.47,14.47,0,0,0,87.67,209.48Z"/></g></g></svg>